<svg width="69.972" height="70.997" viewBox="0 0 69.972 70.997" xmlns="http://www.w3.org/2000/svg"><g id="svgGroup" stroke-linecap="round" fill-rule="evenodd" font-size="9pt" stroke="#000" stroke-width="0.25mm" fill="none" style="stroke:#000;stroke-width:0.25mm;fill:none"><path d="M 69.971 20.997 L 69.971 70.997 L 56.006 70.997 L 56.006 20.997 A 6.718 6.718 0 0 0 55.529 18.462 A 6.481 6.481 0 0 0 55.445 18.262 A 7.267 7.267 0 0 0 53.931 16.04 A 6.924 6.924 0 0 0 51.709 14.551 A 6.898 6.898 0 0 0 49.157 14.016 A 7.893 7.893 0 0 0 48.975 14.014 A 7.042 7.042 0 0 0 46.662 14.389 A 6.637 6.637 0 0 0 46.241 14.551 Q 44.971 15.088 44.019 16.04 A 6.924 6.924 0 0 0 42.53 18.262 A 6.898 6.898 0 0 0 41.995 20.814 A 7.893 7.893 0 0 0 41.993 20.997 L 41.993 70.997 L 27.979 70.997 L 27.979 20.997 A 7.042 7.042 0 0 0 27.604 18.684 A 6.637 6.637 0 0 0 27.442 18.262 Q 26.905 16.993 25.953 16.04 A 6.924 6.924 0 0 0 23.731 14.551 A 6.898 6.898 0 0 0 21.179 14.016 A 7.893 7.893 0 0 0 20.997 14.014 A 7.042 7.042 0 0 0 18.684 14.389 A 6.637 6.637 0 0 0 18.262 14.551 Q 16.993 15.088 16.04 16.04 A 6.924 6.924 0 0 0 14.551 18.262 A 6.898 6.898 0 0 0 14.016 20.814 A 7.893 7.893 0 0 0 14.014 20.997 L 14.014 70.997 L 0 70.997 L 0 20.997 A 20.617 20.617 0 0 1 1.636 12.818 Q 3.272 8.985 6.128 6.128 A 21.033 21.033 0 0 1 12.818 1.636 Q 16.651 0 20.997 0 Q 24.903 0 28.516 1.392 A 20.4 20.4 0 0 1 35.01 5.42 A 20.471 20.471 0 0 1 41.48 1.392 Q 45.069 0 48.975 0 A 20.617 20.617 0 0 1 57.154 1.636 Q 60.987 3.272 63.843 6.128 A 21.033 21.033 0 0 1 68.335 12.818 Q 69.971 16.651 69.971 20.997 Z" vector-effect="non-scaling-stroke"/></g></svg>
